<svg xmlns="http://www.w3.org/2000/svg" viewBox="0 0 1280 860" width="1280" height="860">
  <defs>
    <linearGradient id="sidebar-grad" x1="0%" y1="0%" x2="100%" y2="0%">
      <stop offset="0%" style="stop-color:#111827"/>
      <stop offset="100%" style="stop-color:#0f172a"/>
    </linearGradient>
  </defs>

  <!-- Window + chrome -->
  <rect width="1280" height="860" fill="#111827"/>
  <rect width="1280" height="38" fill="#0f172a"/>
  <circle cx="18" cy="19" r="7" fill="#ef4444" opacity="0.8"/>
  <circle cx="38" cy="19" r="7" fill="#f59e0b" opacity="0.8"/>
  <circle cx="58" cy="19" r="7" fill="#22c55e" opacity="0.8"/>
  <text x="640" y="25" text-anchor="middle" font-family="-apple-system, sans-serif" font-size="13" fill="#64748b">Home Assistant — HA Entity Cleaner</text>

  <!-- Sidebar -->
  <rect x="0" y="38" width="72" height="822" fill="url(#sidebar-grad)"/>
  <g>
    <rect x="20" y="62" width="32" height="32" rx="8" fill="#1e293b"/>
    <text x="36" y="83" text-anchor="middle" fill="#94a3b8" font-size="16">⌂</text>
    <rect x="20" y="106" width="32" height="32" rx="8" fill="#1e293b"/>
    <text x="36" y="127" text-anchor="middle" fill="#64748b" font-size="16">◈</text>
    <rect x="16" y="148" width="40" height="40" rx="10" fill="#1e3a5f"/>
    <rect x="15" y="148" width="3" height="40" rx="1.5" fill="#38bdf8"/>
    <text x="36" y="174" text-anchor="middle" fill="#38bdf8" font-size="18">🧹</text>
  </g>

  <!-- Main area -->
  <rect x="72" y="38" width="1208" height="822" fill="#111827"/>
  <rect x="72" y="38" width="1208" height="56" fill="#0f172a" opacity="0.8"/>
  <text x="100" y="73" font-family="-apple-system, BlinkMacSystemFont, 'Segoe UI', system-ui, sans-serif" font-size="20" font-weight="600" fill="#f1f5f9">🧹 HA Entity Cleaner</text>
  <text x="340" y="73" font-family="-apple-system, sans-serif" font-size="14" fill="#475569">Find, review, and safely remove orphaned entities</text>

  <!-- ← Overview button -->
  <rect x="990" y="51" width="120" height="32" rx="8" fill="#1e293b" stroke="#334155" stroke-width="1"/>
  <text x="1050" y="72" text-anchor="middle" font-family="-apple-system, sans-serif" font-size="13" fill="#94a3b8">← Overview</text>

  <!-- Rescan button -->
  <rect x="1120" y="51" width="130" height="32" rx="8" fill="#1e293b" stroke="#334155" stroke-width="1"/>
  <text x="1185" y="72" text-anchor="middle" font-family="-apple-system, sans-serif" font-size="13" fill="#94a3b8">↺  Rescan</text>

  <!-- ═══════════ TABS ═══════════ -->
  <line x1="100" y1="140" x2="1260" y2="140" stroke="#1e293b" stroke-width="1"/>
  <!-- Orphans tab (active) -->
  <text x="130" y="128" font-family="-apple-system, sans-serif" font-size="14" font-weight="550" fill="#38bdf8">Orphans</text>
  <rect x="116" y="120" width="76" height="24" rx="12" fill="#1e3a5f" opacity="0.5"/>
  <text x="157" y="132" text-anchor="middle" font-family="ui-monospace, monospace" font-size="11" fill="#38bdf8">28</text>
  <line x1="100" y1="140" x2="220" y2="140" stroke="#38bdf8" stroke-width="2"/>

  <!-- Offline tab -->
  <text x="246" y="128" font-family="-apple-system, sans-serif" font-size="14" font-weight="550" fill="#64748b">Offline</text>
  <rect x="296" y="120" width="24" height="24" rx="12" fill="#1e293b"/>
  <text x="308" y="132" text-anchor="middle" font-family="ui-monospace, monospace" font-size="11" fill="#6b7280">7</text>

  <!-- Disabled tab -->
  <text x="346" y="128" font-family="-apple-system, sans-serif" font-size="14" font-weight="550" fill="#64748b">Disabled</text>
  <rect x="400" y="120" width="28" height="24" rx="12" fill="#1e293b"/>
  <text x="414" y="132" text-anchor="middle" font-family="ui-monospace, monospace" font-size="11" fill="#6b7280">14</text>

  <!-- Ghosts tab -->
  <text x="450" y="128" font-family="-apple-system, sans-serif" font-size="14" font-weight="550" fill="#64748b">Ghosts</text>
  <rect x="496" y="120" width="20" height="24" rx="12" fill="#1e293b"/>
  <text x="506" y="132" text-anchor="middle" font-family="ui-monospace, monospace" font-size="11" fill="#6b7280">2</text>

  <!-- Bucket note -->
  <text x="100" y="168" font-family="-apple-system, sans-serif" font-size="12.5" fill="#64748b">Entities whose integration is gone or config entry was removed. Green = high confidence. Amber = review before deleting.</text>

  <!-- ═══════════ TOOLBAR ═══════════ -->
  <!-- Search input -->
  <rect x="100" y="186" width="620" height="38" rx="9" fill="#1e293b" stroke="#334155" stroke-width="1"/>
  <text x="124" y="210" font-family="-apple-system, sans-serif" font-size="13" fill="#475569">Filter by entity_id or domain…</text>

  <!-- Safe only toggle -->
  <rect x="736" y="190" width="18" height="18" rx="4" fill="#0ea5e9"/>
  <text x="744" y="203" text-anchor="middle" font-family="-apple-system, sans-serif" font-size="11" fill="#fff">✓</text>
  <text x="762" y="210" font-family="-apple-system, sans-serif" font-size="13" fill="#94a3b8">Safe only</text>

  <!-- Select all / Clear -->
  <rect x="868" y="190" width="100" height="30" rx="8" fill="#1e293b" stroke="#334155" stroke-width="1"/>
  <text x="918" y="210" text-anchor="middle" font-family="-apple-system, sans-serif" font-size="13" fill="#94a3b8">Select all</text>
  <rect x="980" y="190" width="66" height="30" rx="8" fill="#1e293b" stroke="#334155" stroke-width="1"/>
  <text x="1013" y="210" text-anchor="middle" font-family="-apple-system, sans-serif" font-size="13" fill="#94a3b8">Clear</text>

  <!-- Selected count -->
  <text x="1066" y="210" font-family="ui-monospace, monospace" font-size="13" fill="#64748b">7 selected</text>

  <!-- ═══════════ ENTITY LIST ═══════════ -->

  <!-- ── button domain group (open) ── -->
  <rect x="100" y="244" width="1160" height="44" rx="11" fill="#1e293b" stroke="#263548" stroke-width="1"/>
  <text x="126" y="272" font-family="-apple-system, sans-serif" font-size="14" fill="#64748b">▼</text>
  <text x="152" y="272" font-family="ui-monospace, monospace" font-size="14" font-weight="600" fill="#f1f5f9">button</text>
  <text x="980" y="272" font-family="-apple-system, sans-serif" font-size="12" fill="#0ea5e9">Select all</text>
  <text x="1220" y="272" text-anchor="end" font-family="ui-monospace, monospace" font-size="12" fill="#64748b">22</text>

  <!-- Entity rows under button -->
  <!-- Row 1 -->
  <rect x="100" y="287" width="1160" height="46" fill="#172033" stroke="#263548" stroke-width="1" stroke-top="none"/>
  <rect x="100" y="287" width="1160" height="46" fill="none" stroke="#1e293b" stroke-width="1"/>
  <rect x="116" y="299" width="18" height="18" rx="4" fill="#1e293b" stroke="#334155" stroke-width="1.5"/>
  <rect x="116" y="299" width="18" height="18" rx="4" fill="#0ea5e9" opacity="0.9"/>
  <text x="124" y="312" text-anchor="middle" fill="#fff" font-size="11">✓</text>
  <text x="150" y="315" font-family="ui-monospace, monospace" font-size="13" fill="#f1f5f9">button.wled_strip_identify</text>
  <text x="1060" y="312" font-family="ui-monospace, monospace" font-size="11.5" fill="#22c55e">config entry removed</text>
  <text x="1210" y="312" text-anchor="end" font-family="-apple-system, sans-serif" font-size="11" fill="#64748b">90 days ago</text>

  <!-- Row 2 -->
  <rect x="100" y="332" width="1160" height="46" fill="#111827"/>
  <rect x="100" y="332" width="1160" height="46" fill="none" stroke="#1e293b" stroke-width="1"/>
  <rect x="116" y="344" width="18" height="18" rx="4" fill="#0ea5e9" opacity="0.9"/>
  <text x="124" y="357" text-anchor="middle" fill="#fff" font-size="11">✓</text>
  <text x="150" y="360" font-family="ui-monospace, monospace" font-size="13" fill="#f1f5f9">button.plug_living_room_restart</text>
  <text x="1060" y="357" font-family="ui-monospace, monospace" font-size="11.5" fill="#22c55e">config entry removed</text>
  <text x="1210" y="357" text-anchor="end" font-family="-apple-system, sans-serif" font-size="11" fill="#64748b">120 days ago</text>

  <!-- Row 3 -->
  <rect x="100" y="377" width="1160" height="46" fill="#172033"/>
  <rect x="100" y="377" width="1160" height="46" fill="none" stroke="#1e293b" stroke-width="1"/>
  <rect x="116" y="389" width="18" height="18" rx="4" fill="#0ea5e9" opacity="0.9"/>
  <text x="124" y="402" text-anchor="middle" fill="#fff" font-size="11">✓</text>
  <text x="150" y="405" font-family="ui-monospace, monospace" font-size="13" fill="#f1f5f9">button.old_ikea_tradfri_update</text>
  <text x="900" y="402" font-family="ui-monospace, monospace" font-size="11.5" fill="#22c55e">config entry removed</text>
  <text x="1210" y="402" text-anchor="end" font-family="-apple-system, sans-serif" font-size="11" fill="#64748b">45 days ago</text>

  <!-- Row 4 — referenced entity (amber highlight) -->
  <rect x="100" y="422" width="1160" height="50" fill="#1a1500"/>
  <rect x="100" y="422" width="1160" height="50" fill="none" stroke="#1e293b" stroke-width="1"/>
  <!-- unchecked checkbox (not pre-selected) -->
  <rect x="116" y="435" width="18" height="18" rx="4" fill="#1e293b" stroke="#334155" stroke-width="1.5"/>
  <text x="150" y="453" font-family="ui-monospace, monospace" font-size="13" fill="#f1f5f9">button.removed_shelly_identify</text>
  <text x="820" y="450" font-family="ui-monospace, monospace" font-size="11.5" fill="#22c55e">config entry removed</text>
  <!-- Referenced badge -->
  <rect x="1030" y="437" width="82" height="22" rx="6" fill="none" stroke="#f59e0b" stroke-width="1.2"/>
  <text x="1072" y="453" text-anchor="middle" font-family="-apple-system, sans-serif" font-size="11" fill="#f59e0b">⚠ in config</text>
  <text x="1210" y="453" text-anchor="end" font-family="-apple-system, sans-serif" font-size="11" fill="#64748b">12 days ago</text>

  <!-- ── sensor domain group (closed) ── -->
  <rect x="100" y="492" width="1160" height="44" rx="11" fill="#1e293b" stroke="#263548" stroke-width="1"/>
  <text x="126" y="519" font-family="-apple-system, sans-serif" font-size="14" fill="#64748b">▶</text>
  <text x="152" y="519" font-family="ui-monospace, monospace" font-size="14" font-weight="600" fill="#f1f5f9">sensor</text>
  <text x="980" y="519" font-family="-apple-system, sans-serif" font-size="12" fill="#0ea5e9">Select all</text>
  <text x="1220" y="519" text-anchor="end" font-family="ui-monospace, monospace" font-size="12" fill="#64748b">4</text>

  <!-- ── binary_sensor (closed) ── -->
  <rect x="100" y="548" width="1160" height="44" rx="11" fill="#1e293b" stroke="#263548" stroke-width="1"/>
  <text x="126" y="575" font-family="-apple-system, sans-serif" font-size="14" fill="#64748b">▶</text>
  <text x="152" y="575" font-family="ui-monospace, monospace" font-size="14" font-weight="600" fill="#f1f5f9">binary_sensor</text>
  <text x="980" y="575" font-family="-apple-system, sans-serif" font-size="12" fill="#0ea5e9">Select all</text>
  <text x="1220" y="575" text-anchor="end" font-family="ui-monospace, monospace" font-size="12" fill="#64748b">1</text>

  <!-- ── light (closed) ── -->
  <rect x="100" y="604" width="1160" height="44" rx="11" fill="#1e293b" stroke="#263548" stroke-width="1"/>
  <text x="126" y="631" font-family="-apple-system, sans-serif" font-size="14" fill="#64748b">▶</text>
  <text x="152" y="631" font-family="ui-monospace, monospace" font-size="14" font-weight="600" fill="#f1f5f9">light</text>
  <text x="980" y="631" font-family="-apple-system, sans-serif" font-size="12" fill="#0ea5e9">Select all</text>
  <text x="1220" y="631" text-anchor="end" font-family="ui-monospace, monospace" font-size="12" fill="#64748b">1</text>

  <!-- ═══════════ STICKY ACTION BAR ═══════════ -->
  <!-- gradient fade -->
  <defs>
    <linearGradient id="bar-fade" x1="0%" y1="0%" x2="0%" y2="100%">
      <stop offset="0%" style="stop-color:#111827;stop-opacity:0"/>
      <stop offset="40%" style="stop-color:#111827;stop-opacity:1"/>
    </linearGradient>
  </defs>
  <rect x="72" y="780" width="1208" height="80" fill="url(#bar-fade)"/>

  <!-- Export button -->
  <rect x="100" y="800" width="154" height="40" rx="9" fill="#1e293b" stroke="#334155" stroke-width="1"/>
  <text x="177" y="825" text-anchor="middle" font-family="-apple-system, sans-serif" font-size="13" font-weight="550" fill="#94a3b8">⬇  Export JSON</text>

  <!-- Delete button -->
  <rect x="268" y="800" width="240" height="40" rx="9" fill="#ef4444"/>
  <text x="388" y="825" text-anchor="middle" font-family="-apple-system, sans-serif" font-size="13" font-weight="600" fill="#fff">🗑  Delete selected (7)</text>
</svg>
